<mxfile host="app.diagrams.net" modified="2023-05-25T17:47:07.581Z" agent="Mozilla/5.0 (Windows NT 10.0; Win64; x64) AppleWebKit/537.36 (KHTML, like Gecko) Chrome/113.0.0.0 Safari/537.36" etag="yHmh0D-KNZ4yr5RQJbB6" version="21.3.3" type="github">
  <diagram id="C5RBs43oDa-KdzZeNtuy" name="Page-1">
    <mxGraphModel dx="985" dy="441" grid="1" gridSize="10" guides="1" tooltips="1" connect="1" arrows="1" fold="1" page="1" pageScale="1" pageWidth="827" pageHeight="1169" math="0" shadow="0">
      <root>
        <mxCell id="WIyWlLk6GJQsqaUBKTNV-0" />
        <mxCell id="WIyWlLk6GJQsqaUBKTNV-1" parent="WIyWlLk6GJQsqaUBKTNV-0" />
        <mxCell id="cEonZbX1jbNBjB6hPj-9-25" value="" style="rhombus;whiteSpace=wrap;html=1;" vertex="1" parent="WIyWlLk6GJQsqaUBKTNV-1">
          <mxGeometry x="477.5" y="1010" width="115" height="107.14" as="geometry" />
        </mxCell>
        <mxCell id="cEonZbX1jbNBjB6hPj-9-3" value="" style="shape=parallelogram;perimeter=parallelogramPerimeter;whiteSpace=wrap;html=1;fixedSize=1;shadow=1;" vertex="1" parent="WIyWlLk6GJQsqaUBKTNV-1">
          <mxGeometry x="450" y="860" width="150" height="60" as="geometry" />
        </mxCell>
        <mxCell id="cEonZbX1jbNBjB6hPj-9-19" value="" style="rounded=0;whiteSpace=wrap;html=1;" vertex="1" parent="WIyWlLk6GJQsqaUBKTNV-1">
          <mxGeometry x="440" y="860" width="170" height="60" as="geometry" />
        </mxCell>
        <mxCell id="gO2lyT7wccQeMuY5WJiI-27" value="" style="shape=parallelogram;perimeter=parallelogramPerimeter;whiteSpace=wrap;html=1;fixedSize=1;" vertex="1" parent="WIyWlLk6GJQsqaUBKTNV-1">
          <mxGeometry x="390" y="450" width="110" height="40" as="geometry" />
        </mxCell>
        <mxCell id="gO2lyT7wccQeMuY5WJiI-25" value="" style="shape=display;whiteSpace=wrap;html=1;" vertex="1" parent="WIyWlLk6GJQsqaUBKTNV-1">
          <mxGeometry x="290" y="455" width="80" height="40" as="geometry" />
        </mxCell>
        <mxCell id="gO2lyT7wccQeMuY5WJiI-11" value="" style="rhombus;whiteSpace=wrap;html=1;" vertex="1" parent="WIyWlLk6GJQsqaUBKTNV-1">
          <mxGeometry x="290" y="320" width="80" height="80" as="geometry" />
        </mxCell>
        <mxCell id="WIyWlLk6GJQsqaUBKTNV-2" value="" style="rounded=0;html=1;jettySize=auto;orthogonalLoop=1;fontSize=11;endArrow=block;endFill=0;endSize=8;strokeWidth=1;shadow=0;labelBackgroundColor=none;edgeStyle=orthogonalEdgeStyle;" parent="WIyWlLk6GJQsqaUBKTNV-1" source="WIyWlLk6GJQsqaUBKTNV-3" edge="1">
          <mxGeometry relative="1" as="geometry">
            <mxPoint x="220" y="160" as="targetPoint" />
          </mxGeometry>
        </mxCell>
        <mxCell id="WIyWlLk6GJQsqaUBKTNV-3" value="start" style="rounded=1;whiteSpace=wrap;html=1;fontSize=12;glass=0;strokeWidth=1;shadow=0;" parent="WIyWlLk6GJQsqaUBKTNV-1" vertex="1">
          <mxGeometry x="160" y="80" width="120" height="40" as="geometry" />
        </mxCell>
        <mxCell id="gO2lyT7wccQeMuY5WJiI-0" value="" style="whiteSpace=wrap;html=1;aspect=fixed;" vertex="1" parent="WIyWlLk6GJQsqaUBKTNV-1">
          <mxGeometry x="165" y="160" width="110" height="110" as="geometry" />
        </mxCell>
        <mxCell id="gO2lyT7wccQeMuY5WJiI-1" value="&lt;br&gt;&lt;div style=&quot;text-align: left;&quot;&gt;&lt;br&gt;&lt;/div&gt;" style="text;html=1;strokeColor=none;fillColor=#FFFFFF;align=center;verticalAlign=middle;whiteSpace=wrap;rounded=0;" vertex="1" parent="WIyWlLk6GJQsqaUBKTNV-1">
          <mxGeometry x="190" y="180" width="60" as="geometry" />
        </mxCell>
        <mxCell id="gO2lyT7wccQeMuY5WJiI-3" value="introduction and display option" style="text;html=1;strokeColor=none;fillColor=none;align=center;verticalAlign=middle;whiteSpace=wrap;rounded=0;" vertex="1" parent="WIyWlLk6GJQsqaUBKTNV-1">
          <mxGeometry x="170" y="170" width="100" height="90" as="geometry" />
        </mxCell>
        <mxCell id="gO2lyT7wccQeMuY5WJiI-5" value="" style="endArrow=classic;html=1;rounded=0;exitX=0.5;exitY=1;exitDx=0;exitDy=0;" edge="1" parent="WIyWlLk6GJQsqaUBKTNV-1" source="gO2lyT7wccQeMuY5WJiI-0">
          <mxGeometry width="50" height="50" relative="1" as="geometry">
            <mxPoint x="300" y="320" as="sourcePoint" />
            <mxPoint x="220" y="320" as="targetPoint" />
          </mxGeometry>
        </mxCell>
        <mxCell id="gO2lyT7wccQeMuY5WJiI-6" value="" style="rhombus;whiteSpace=wrap;html=1;" vertex="1" parent="WIyWlLk6GJQsqaUBKTNV-1">
          <mxGeometry x="180" y="320" width="80" height="80" as="geometry" />
        </mxCell>
        <mxCell id="gO2lyT7wccQeMuY5WJiI-7" value="start game" style="text;html=1;strokeColor=none;fillColor=none;align=center;verticalAlign=middle;whiteSpace=wrap;rounded=0;" vertex="1" parent="WIyWlLk6GJQsqaUBKTNV-1">
          <mxGeometry x="190" y="345" width="60" height="30" as="geometry" />
        </mxCell>
        <mxCell id="gO2lyT7wccQeMuY5WJiI-8" value="" style="endArrow=classic;html=1;rounded=0;exitX=0.5;exitY=1;exitDx=0;exitDy=0;entryX=0.5;entryY=0;entryDx=0;entryDy=0;" edge="1" parent="WIyWlLk6GJQsqaUBKTNV-1" source="gO2lyT7wccQeMuY5WJiI-6" target="gO2lyT7wccQeMuY5WJiI-38">
          <mxGeometry width="50" height="50" relative="1" as="geometry">
            <mxPoint x="300" y="520" as="sourcePoint" />
            <mxPoint x="220" y="450" as="targetPoint" />
          </mxGeometry>
        </mxCell>
        <mxCell id="gO2lyT7wccQeMuY5WJiI-9" value="" style="endArrow=classic;html=1;rounded=0;exitX=1;exitY=0.5;exitDx=0;exitDy=0;" edge="1" parent="WIyWlLk6GJQsqaUBKTNV-1" source="gO2lyT7wccQeMuY5WJiI-6">
          <mxGeometry width="50" height="50" relative="1" as="geometry">
            <mxPoint x="300" y="520" as="sourcePoint" />
            <mxPoint x="290" y="360" as="targetPoint" />
          </mxGeometry>
        </mxCell>
        <mxCell id="gO2lyT7wccQeMuY5WJiI-13" value="no" style="text;html=1;strokeColor=none;fillColor=none;align=center;verticalAlign=middle;whiteSpace=wrap;rounded=0;" vertex="1" parent="WIyWlLk6GJQsqaUBKTNV-1">
          <mxGeometry x="240" y="330" width="60" height="30" as="geometry" />
        </mxCell>
        <mxCell id="gO2lyT7wccQeMuY5WJiI-14" value="tutorial" style="text;html=1;strokeColor=none;fillColor=none;align=center;verticalAlign=middle;whiteSpace=wrap;rounded=0;" vertex="1" parent="WIyWlLk6GJQsqaUBKTNV-1">
          <mxGeometry x="300" y="345" width="60" height="30" as="geometry" />
        </mxCell>
        <mxCell id="gO2lyT7wccQeMuY5WJiI-15" value="" style="endArrow=classic;html=1;rounded=0;exitX=0.5;exitY=1;exitDx=0;exitDy=0;" edge="1" parent="WIyWlLk6GJQsqaUBKTNV-1" source="gO2lyT7wccQeMuY5WJiI-11">
          <mxGeometry width="50" height="50" relative="1" as="geometry">
            <mxPoint x="300" y="520" as="sourcePoint" />
            <mxPoint x="330" y="450" as="targetPoint" />
          </mxGeometry>
        </mxCell>
        <mxCell id="gO2lyT7wccQeMuY5WJiI-17" value="play&amp;nbsp; tutorial" style="text;html=1;strokeColor=none;fillColor=none;align=center;verticalAlign=middle;whiteSpace=wrap;rounded=0;" vertex="1" parent="WIyWlLk6GJQsqaUBKTNV-1">
          <mxGeometry x="300" y="460" width="60" height="30" as="geometry" />
        </mxCell>
        <mxCell id="gO2lyT7wccQeMuY5WJiI-20" value="" style="endArrow=classic;html=1;rounded=0;exitX=1;exitY=0.5;exitDx=0;exitDy=0;" edge="1" parent="WIyWlLk6GJQsqaUBKTNV-1" source="gO2lyT7wccQeMuY5WJiI-11">
          <mxGeometry width="50" height="50" relative="1" as="geometry">
            <mxPoint x="300" y="520" as="sourcePoint" />
            <mxPoint x="410" y="360" as="targetPoint" />
          </mxGeometry>
        </mxCell>
        <mxCell id="gO2lyT7wccQeMuY5WJiI-21" value="" style="rhombus;whiteSpace=wrap;html=1;" vertex="1" parent="WIyWlLk6GJQsqaUBKTNV-1">
          <mxGeometry x="410" y="320" width="80" height="80" as="geometry" />
        </mxCell>
        <mxCell id="gO2lyT7wccQeMuY5WJiI-22" value="no" style="text;html=1;strokeColor=none;fillColor=none;align=center;verticalAlign=middle;whiteSpace=wrap;rounded=0;" vertex="1" parent="WIyWlLk6GJQsqaUBKTNV-1">
          <mxGeometry x="360" y="330" width="60" height="30" as="geometry" />
        </mxCell>
        <mxCell id="gO2lyT7wccQeMuY5WJiI-23" value="settings" style="text;html=1;strokeColor=none;fillColor=none;align=center;verticalAlign=middle;whiteSpace=wrap;rounded=0;" vertex="1" parent="WIyWlLk6GJQsqaUBKTNV-1">
          <mxGeometry x="420" y="345" width="60" height="30" as="geometry" />
        </mxCell>
        <mxCell id="gO2lyT7wccQeMuY5WJiI-24" value="" style="endArrow=classic;html=1;rounded=0;exitX=0.5;exitY=1;exitDx=0;exitDy=0;" edge="1" parent="WIyWlLk6GJQsqaUBKTNV-1" source="gO2lyT7wccQeMuY5WJiI-21">
          <mxGeometry width="50" height="50" relative="1" as="geometry">
            <mxPoint x="390" y="520" as="sourcePoint" />
            <mxPoint x="450" y="450" as="targetPoint" />
          </mxGeometry>
        </mxCell>
        <mxCell id="gO2lyT7wccQeMuY5WJiI-26" value="" style="endArrow=classic;html=1;rounded=0;exitX=0;exitY=0;exitDx=40;exitDy=40;exitPerimeter=0;entryX=1;entryY=0.5;entryDx=0;entryDy=0;edgeStyle=orthogonalEdgeStyle;" edge="1" parent="WIyWlLk6GJQsqaUBKTNV-1" source="gO2lyT7wccQeMuY5WJiI-25" target="gO2lyT7wccQeMuY5WJiI-0">
          <mxGeometry width="50" height="50" relative="1" as="geometry">
            <mxPoint x="340" y="560" as="sourcePoint" />
            <mxPoint x="390" y="510" as="targetPoint" />
            <Array as="points">
              <mxPoint x="330" y="510" />
              <mxPoint x="650" y="510" />
              <mxPoint x="650" y="215" />
            </Array>
          </mxGeometry>
        </mxCell>
        <mxCell id="gO2lyT7wccQeMuY5WJiI-28" value="new setting" style="text;html=1;strokeColor=none;fillColor=none;align=center;verticalAlign=middle;whiteSpace=wrap;rounded=0;" vertex="1" parent="WIyWlLk6GJQsqaUBKTNV-1">
          <mxGeometry x="410" y="452.5" width="60" height="30" as="geometry" />
        </mxCell>
        <mxCell id="gO2lyT7wccQeMuY5WJiI-29" value="" style="endArrow=none;html=1;rounded=0;" edge="1" parent="WIyWlLk6GJQsqaUBKTNV-1">
          <mxGeometry width="50" height="50" relative="1" as="geometry">
            <mxPoint x="440" y="510" as="sourcePoint" />
            <mxPoint x="440" y="490" as="targetPoint" />
            <Array as="points" />
          </mxGeometry>
        </mxCell>
        <mxCell id="gO2lyT7wccQeMuY5WJiI-31" value="" style="endArrow=classic;html=1;rounded=0;exitX=1;exitY=0.5;exitDx=0;exitDy=0;" edge="1" parent="WIyWlLk6GJQsqaUBKTNV-1" source="gO2lyT7wccQeMuY5WJiI-21">
          <mxGeometry width="50" height="50" relative="1" as="geometry">
            <mxPoint x="440" y="490" as="sourcePoint" />
            <mxPoint x="520" y="360" as="targetPoint" />
          </mxGeometry>
        </mxCell>
        <mxCell id="gO2lyT7wccQeMuY5WJiI-32" value="" style="rhombus;whiteSpace=wrap;html=1;" vertex="1" parent="WIyWlLk6GJQsqaUBKTNV-1">
          <mxGeometry x="520" y="320" width="80" height="80" as="geometry" />
        </mxCell>
        <mxCell id="gO2lyT7wccQeMuY5WJiI-33" value="exit" style="text;html=1;strokeColor=none;fillColor=none;align=center;verticalAlign=middle;whiteSpace=wrap;rounded=0;" vertex="1" parent="WIyWlLk6GJQsqaUBKTNV-1">
          <mxGeometry x="530" y="345" width="60" height="30" as="geometry" />
        </mxCell>
        <mxCell id="gO2lyT7wccQeMuY5WJiI-34" value="" style="endArrow=classic;html=1;rounded=0;exitX=1;exitY=0.5;exitDx=0;exitDy=0;" edge="1" parent="WIyWlLk6GJQsqaUBKTNV-1" source="gO2lyT7wccQeMuY5WJiI-32">
          <mxGeometry width="50" height="50" relative="1" as="geometry">
            <mxPoint x="440" y="380" as="sourcePoint" />
            <mxPoint x="650" y="360" as="targetPoint" />
          </mxGeometry>
        </mxCell>
        <mxCell id="gO2lyT7wccQeMuY5WJiI-38" value="" style="rhombus;whiteSpace=wrap;html=1;" vertex="1" parent="WIyWlLk6GJQsqaUBKTNV-1">
          <mxGeometry x="170" y="560" width="100" height="100" as="geometry" />
        </mxCell>
        <mxCell id="gO2lyT7wccQeMuY5WJiI-39" value="have&amp;nbsp; the user been saved game&amp;nbsp;" style="text;html=1;strokeColor=none;fillColor=none;align=center;verticalAlign=middle;whiteSpace=wrap;rounded=0;" vertex="1" parent="WIyWlLk6GJQsqaUBKTNV-1">
          <mxGeometry x="190" y="597.5" width="60" height="25" as="geometry" />
        </mxCell>
        <mxCell id="gO2lyT7wccQeMuY5WJiI-42" value="" style="endArrow=classic;html=1;rounded=0;exitX=1;exitY=0.5;exitDx=0;exitDy=0;" edge="1" parent="WIyWlLk6GJQsqaUBKTNV-1" source="gO2lyT7wccQeMuY5WJiI-38">
          <mxGeometry width="50" height="50" relative="1" as="geometry">
            <mxPoint x="250" y="610" as="sourcePoint" />
            <mxPoint x="310" y="610" as="targetPoint" />
          </mxGeometry>
        </mxCell>
        <mxCell id="gO2lyT7wccQeMuY5WJiI-43" value="" style="shape=dataStorage;whiteSpace=wrap;html=1;fixedSize=1;" vertex="1" parent="WIyWlLk6GJQsqaUBKTNV-1">
          <mxGeometry x="175" y="700" width="100" height="80" as="geometry" />
        </mxCell>
        <mxCell id="gO2lyT7wccQeMuY5WJiI-44" value="load saved game" style="text;html=1;strokeColor=none;fillColor=none;align=center;verticalAlign=middle;whiteSpace=wrap;rounded=0;" vertex="1" parent="WIyWlLk6GJQsqaUBKTNV-1">
          <mxGeometry x="190" y="725" width="60" height="30" as="geometry" />
        </mxCell>
        <mxCell id="gO2lyT7wccQeMuY5WJiI-45" value="" style="endArrow=classic;html=1;rounded=0;exitX=0.5;exitY=1;exitDx=0;exitDy=0;" edge="1" parent="WIyWlLk6GJQsqaUBKTNV-1" source="gO2lyT7wccQeMuY5WJiI-38">
          <mxGeometry width="50" height="50" relative="1" as="geometry">
            <mxPoint x="250" y="720" as="sourcePoint" />
            <mxPoint x="220" y="700" as="targetPoint" />
          </mxGeometry>
        </mxCell>
        <mxCell id="gO2lyT7wccQeMuY5WJiI-47" value="no" style="text;html=1;strokeColor=none;fillColor=none;align=center;verticalAlign=middle;whiteSpace=wrap;rounded=0;" vertex="1" parent="WIyWlLk6GJQsqaUBKTNV-1">
          <mxGeometry x="260" y="585" width="60" height="30" as="geometry" />
        </mxCell>
        <mxCell id="gO2lyT7wccQeMuY5WJiI-48" value="" style="shape=display;whiteSpace=wrap;html=1;" vertex="1" parent="WIyWlLk6GJQsqaUBKTNV-1">
          <mxGeometry x="455" y="740" width="150" height="90" as="geometry" />
        </mxCell>
        <mxCell id="gO2lyT7wccQeMuY5WJiI-50" value="" style="shape=parallelogram;perimeter=parallelogramPerimeter;whiteSpace=wrap;html=1;fixedSize=1;" vertex="1" parent="WIyWlLk6GJQsqaUBKTNV-1">
          <mxGeometry x="300" y="585" width="120" height="60" as="geometry" />
        </mxCell>
        <mxCell id="gO2lyT7wccQeMuY5WJiI-51" value="creating a new account" style="text;html=1;strokeColor=none;fillColor=none;align=center;verticalAlign=middle;whiteSpace=wrap;rounded=0;" vertex="1" parent="WIyWlLk6GJQsqaUBKTNV-1">
          <mxGeometry x="330" y="600" width="60" height="30" as="geometry" />
        </mxCell>
        <mxCell id="gO2lyT7wccQeMuY5WJiI-52" value="" style="shape=dataStorage;whiteSpace=wrap;html=1;fixedSize=1;" vertex="1" parent="WIyWlLk6GJQsqaUBKTNV-1">
          <mxGeometry x="480" y="630" width="100" height="80" as="geometry" />
        </mxCell>
        <mxCell id="gO2lyT7wccQeMuY5WJiI-36" value="setting up the environment" style="text;html=1;strokeColor=none;fillColor=none;align=center;verticalAlign=middle;whiteSpace=wrap;rounded=0;" vertex="1" parent="WIyWlLk6GJQsqaUBKTNV-1">
          <mxGeometry x="490" y="655" width="60" height="30" as="geometry" />
        </mxCell>
        <mxCell id="gO2lyT7wccQeMuY5WJiI-54" value="" style="endArrow=classic;html=1;rounded=0;exitX=1;exitY=0.5;exitDx=0;exitDy=0;" edge="1" parent="WIyWlLk6GJQsqaUBKTNV-1" source="gO2lyT7wccQeMuY5WJiI-50">
          <mxGeometry width="50" height="50" relative="1" as="geometry">
            <mxPoint x="430" y="610" as="sourcePoint" />
            <mxPoint x="490" y="650" as="targetPoint" />
          </mxGeometry>
        </mxCell>
        <mxCell id="gO2lyT7wccQeMuY5WJiI-55" value="" style="endArrow=classic;html=1;rounded=0;exitX=0.842;exitY=0.55;exitDx=0;exitDy=0;exitPerimeter=0;" edge="1" parent="WIyWlLk6GJQsqaUBKTNV-1" source="gO2lyT7wccQeMuY5WJiI-43">
          <mxGeometry width="50" height="50" relative="1" as="geometry">
            <mxPoint x="430" y="720" as="sourcePoint" />
            <mxPoint x="480" y="670" as="targetPoint" />
          </mxGeometry>
        </mxCell>
        <mxCell id="gO2lyT7wccQeMuY5WJiI-56" value="Display background story" style="text;html=1;strokeColor=none;fillColor=none;align=center;verticalAlign=middle;whiteSpace=wrap;rounded=0;" vertex="1" parent="WIyWlLk6GJQsqaUBKTNV-1">
          <mxGeometry x="500" y="770" width="60" height="30" as="geometry" />
        </mxCell>
        <mxCell id="gO2lyT7wccQeMuY5WJiI-57" value="" style="endArrow=classic;html=1;rounded=0;exitX=0.5;exitY=1;exitDx=0;exitDy=0;entryX=0;entryY=0;entryDx=71.25;entryDy=0;entryPerimeter=0;" edge="1" parent="WIyWlLk6GJQsqaUBKTNV-1" source="gO2lyT7wccQeMuY5WJiI-52" target="gO2lyT7wccQeMuY5WJiI-48">
          <mxGeometry width="50" height="50" relative="1" as="geometry">
            <mxPoint x="430" y="830" as="sourcePoint" />
            <mxPoint x="480" y="780" as="targetPoint" />
          </mxGeometry>
        </mxCell>
        <mxCell id="cEonZbX1jbNBjB6hPj-9-1" value="player receives the story quest" style="text;html=1;strokeColor=none;fillColor=none;align=center;verticalAlign=middle;whiteSpace=wrap;rounded=0;" vertex="1" parent="WIyWlLk6GJQsqaUBKTNV-1">
          <mxGeometry x="475" y="875" width="110" height="30" as="geometry" />
        </mxCell>
        <mxCell id="cEonZbX1jbNBjB6hPj-9-2" value="" style="endArrow=classic;html=1;rounded=0;exitX=0;exitY=0;exitDx=71.25;exitDy=90;exitPerimeter=0;entryX=0.5;entryY=0;entryDx=0;entryDy=0;" edge="1" parent="WIyWlLk6GJQsqaUBKTNV-1" source="gO2lyT7wccQeMuY5WJiI-48">
          <mxGeometry width="50" height="50" relative="1" as="geometry">
            <mxPoint x="430" y="830" as="sourcePoint" />
            <mxPoint x="530" y="860" as="targetPoint" />
          </mxGeometry>
        </mxCell>
        <mxCell id="cEonZbX1jbNBjB6hPj-9-4" value="" style="endArrow=classic;html=1;rounded=0;exitX=0.453;exitY=1.119;exitDx=0;exitDy=0;exitPerimeter=0;entryX=0.497;entryY=0.026;entryDx=0;entryDy=0;entryPerimeter=0;" edge="1" parent="WIyWlLk6GJQsqaUBKTNV-1" target="cEonZbX1jbNBjB6hPj-9-25">
          <mxGeometry width="50" height="50" relative="1" as="geometry">
            <mxPoint x="532.95" y="999.9999999999999" as="sourcePoint" />
            <mxPoint x="533" y="1032.86" as="targetPoint" />
          </mxGeometry>
        </mxCell>
        <mxCell id="cEonZbX1jbNBjB6hPj-9-6" value="player follows the quest" style="text;html=1;strokeColor=none;fillColor=none;align=center;verticalAlign=middle;whiteSpace=wrap;rounded=0;" vertex="1" parent="WIyWlLk6GJQsqaUBKTNV-1">
          <mxGeometry x="485" y="1047.86" width="90" height="30" as="geometry" />
        </mxCell>
        <mxCell id="cEonZbX1jbNBjB6hPj-9-7" value="" style="endArrow=classic;html=1;rounded=0;exitX=0.5;exitY=1;exitDx=0;exitDy=0;" edge="1" parent="WIyWlLk6GJQsqaUBKTNV-1" source="cEonZbX1jbNBjB6hPj-9-25">
          <mxGeometry width="50" height="50" relative="1" as="geometry">
            <mxPoint x="535" y="1092.86" as="sourcePoint" />
            <mxPoint x="535" y="1132.86" as="targetPoint" />
          </mxGeometry>
        </mxCell>
        <mxCell id="cEonZbX1jbNBjB6hPj-9-8" value="" style="rhombus;whiteSpace=wrap;html=1;" vertex="1" parent="WIyWlLk6GJQsqaUBKTNV-1">
          <mxGeometry x="495" y="1132.86" width="80" height="80" as="geometry" />
        </mxCell>
        <mxCell id="cEonZbX1jbNBjB6hPj-9-9" value="is the quest comleted?" style="text;html=1;strokeColor=none;fillColor=none;align=center;verticalAlign=middle;whiteSpace=wrap;rounded=0;" vertex="1" parent="WIyWlLk6GJQsqaUBKTNV-1">
          <mxGeometry x="505" y="1152.86" width="60" height="30" as="geometry" />
        </mxCell>
        <mxCell id="cEonZbX1jbNBjB6hPj-9-10" value="" style="endArrow=classic;html=1;rounded=0;exitX=0.5;exitY=1;exitDx=0;exitDy=0;" edge="1" parent="WIyWlLk6GJQsqaUBKTNV-1" source="cEonZbX1jbNBjB6hPj-9-8">
          <mxGeometry width="50" height="50" relative="1" as="geometry">
            <mxPoint x="505" y="1012.86" as="sourcePoint" />
            <mxPoint x="535" y="1242.86" as="targetPoint" />
          </mxGeometry>
        </mxCell>
        <mxCell id="cEonZbX1jbNBjB6hPj-9-11" value="" style="endArrow=classic;html=1;rounded=0;entryX=1;entryY=0.5;entryDx=0;entryDy=0;" edge="1" parent="WIyWlLk6GJQsqaUBKTNV-1" source="cEonZbX1jbNBjB6hPj-9-12">
          <mxGeometry width="50" height="50" relative="1" as="geometry">
            <mxPoint x="575" y="1172.86" as="sourcePoint" />
            <mxPoint x="594.9999999999998" y="1062.86" as="targetPoint" />
            <Array as="points" />
          </mxGeometry>
        </mxCell>
        <mxCell id="cEonZbX1jbNBjB6hPj-9-13" value="" style="endArrow=classic;html=1;rounded=0;entryX=0.5;entryY=1;entryDx=0;entryDy=0;" edge="1" parent="WIyWlLk6GJQsqaUBKTNV-1" target="cEonZbX1jbNBjB6hPj-9-12">
          <mxGeometry width="50" height="50" relative="1" as="geometry">
            <mxPoint x="575" y="1172.86" as="sourcePoint" />
            <mxPoint x="595" y="1062.86" as="targetPoint" />
            <Array as="points">
              <mxPoint x="685" y="1172.86" />
              <mxPoint x="705" y="1102.86" />
            </Array>
          </mxGeometry>
        </mxCell>
        <mxCell id="cEonZbX1jbNBjB6hPj-9-12" value="" style="rounded=0;whiteSpace=wrap;html=1;" vertex="1" parent="WIyWlLk6GJQsqaUBKTNV-1">
          <mxGeometry x="645" y="1092.86" width="120" height="60" as="geometry" />
        </mxCell>
        <mxCell id="cEonZbX1jbNBjB6hPj-9-14" value="continues on the quest" style="text;html=1;strokeColor=none;fillColor=none;align=center;verticalAlign=middle;whiteSpace=wrap;rounded=0;" vertex="1" parent="WIyWlLk6GJQsqaUBKTNV-1">
          <mxGeometry x="650" y="1112.86" width="110" height="30" as="geometry" />
        </mxCell>
        <mxCell id="cEonZbX1jbNBjB6hPj-9-15" value="" style="rounded=0;whiteSpace=wrap;html=1;" vertex="1" parent="WIyWlLk6GJQsqaUBKTNV-1">
          <mxGeometry x="475" y="1241.86" width="120" height="60" as="geometry" />
        </mxCell>
        <mxCell id="cEonZbX1jbNBjB6hPj-9-16" value="receives rewards and next the story" style="text;html=1;strokeColor=none;fillColor=none;align=center;verticalAlign=middle;whiteSpace=wrap;rounded=0;" vertex="1" parent="WIyWlLk6GJQsqaUBKTNV-1">
          <mxGeometry x="485" y="1256.86" width="100" height="30" as="geometry" />
        </mxCell>
        <mxCell id="cEonZbX1jbNBjB6hPj-9-17" value="" style="endArrow=classic;html=1;rounded=0;exitX=0.5;exitY=1;exitDx=0;exitDy=0;" edge="1" parent="WIyWlLk6GJQsqaUBKTNV-1" source="cEonZbX1jbNBjB6hPj-9-15">
          <mxGeometry width="50" height="50" relative="1" as="geometry">
            <mxPoint x="505" y="1342.86" as="sourcePoint" />
            <mxPoint x="535" y="1352.86" as="targetPoint" />
          </mxGeometry>
        </mxCell>
        <mxCell id="cEonZbX1jbNBjB6hPj-9-21" value="" style="shape=parallelogram;perimeter=parallelogramPerimeter;whiteSpace=wrap;html=1;fixedSize=1;" vertex="1" parent="WIyWlLk6GJQsqaUBKTNV-1">
          <mxGeometry x="480" y="940" width="120" height="60" as="geometry" />
        </mxCell>
        <mxCell id="cEonZbX1jbNBjB6hPj-9-22" value="input the player move" style="text;html=1;strokeColor=none;fillColor=none;align=center;verticalAlign=middle;whiteSpace=wrap;rounded=0;" vertex="1" parent="WIyWlLk6GJQsqaUBKTNV-1">
          <mxGeometry x="510" y="955" width="60" height="30" as="geometry" />
        </mxCell>
        <mxCell id="cEonZbX1jbNBjB6hPj-9-23" value="" style="endArrow=classic;html=1;rounded=0;exitX=0.568;exitY=1.015;exitDx=0;exitDy=0;exitPerimeter=0;" edge="1" parent="WIyWlLk6GJQsqaUBKTNV-1" source="cEonZbX1jbNBjB6hPj-9-19">
          <mxGeometry width="50" height="50" relative="1" as="geometry">
            <mxPoint x="490" y="1050" as="sourcePoint" />
            <mxPoint x="540" y="940" as="targetPoint" />
          </mxGeometry>
        </mxCell>
        <mxCell id="cEonZbX1jbNBjB6hPj-9-26" value="" style="endArrow=classic;html=1;rounded=0;exitX=0;exitY=0.5;exitDx=0;exitDy=0;" edge="1" parent="WIyWlLk6GJQsqaUBKTNV-1" source="cEonZbX1jbNBjB6hPj-9-25">
          <mxGeometry width="50" height="50" relative="1" as="geometry">
            <mxPoint x="490" y="1050" as="sourcePoint" />
            <mxPoint x="430" y="1070" as="targetPoint" />
          </mxGeometry>
        </mxCell>
        <mxCell id="cEonZbX1jbNBjB6hPj-9-27" value="" style="rhombus;whiteSpace=wrap;html=1;" vertex="1" parent="WIyWlLk6GJQsqaUBKTNV-1">
          <mxGeometry x="310" y="1020" width="120" height="107.14" as="geometry" />
        </mxCell>
        <mxCell id="cEonZbX1jbNBjB6hPj-9-28" value="is interacts with puzzle or side quest?" style="text;html=1;strokeColor=none;fillColor=none;align=center;verticalAlign=middle;whiteSpace=wrap;rounded=0;" vertex="1" parent="WIyWlLk6GJQsqaUBKTNV-1">
          <mxGeometry x="340" y="1058.5700000000002" width="60" height="30" as="geometry" />
        </mxCell>
        <mxCell id="cEonZbX1jbNBjB6hPj-9-29" value="" style="endArrow=classic;html=1;rounded=0;exitX=0;exitY=0.5;exitDx=0;exitDy=0;" edge="1" parent="WIyWlLk6GJQsqaUBKTNV-1" source="cEonZbX1jbNBjB6hPj-9-27">
          <mxGeometry width="50" height="50" relative="1" as="geometry">
            <mxPoint x="250" y="1097.14" as="sourcePoint" />
            <mxPoint x="280" y="1073" as="targetPoint" />
          </mxGeometry>
        </mxCell>
        <mxCell id="cEonZbX1jbNBjB6hPj-9-30" value="" style="rhombus;whiteSpace=wrap;html=1;" vertex="1" parent="WIyWlLk6GJQsqaUBKTNV-1">
          <mxGeometry x="180" y="1019.9999999999999" width="100" height="107.14" as="geometry" />
        </mxCell>
        <mxCell id="cEonZbX1jbNBjB6hPj-9-31" value="is interacts with cutscene?" style="text;html=1;strokeColor=none;fillColor=none;align=center;verticalAlign=middle;whiteSpace=wrap;rounded=0;" vertex="1" parent="WIyWlLk6GJQsqaUBKTNV-1">
          <mxGeometry x="190" y="1058.5700000000002" width="80" height="30" as="geometry" />
        </mxCell>
        <mxCell id="cEonZbX1jbNBjB6hPj-9-32" value="" style="rhombus;whiteSpace=wrap;html=1;" vertex="1" parent="WIyWlLk6GJQsqaUBKTNV-1">
          <mxGeometry x="50" y="1025.36" width="90" height="96.43" as="geometry" />
        </mxCell>
        <mxCell id="cEonZbX1jbNBjB6hPj-9-33" value="is find the Tarocards or something else" style="text;html=1;strokeColor=none;fillColor=none;align=center;verticalAlign=middle;whiteSpace=wrap;rounded=0;" vertex="1" parent="WIyWlLk6GJQsqaUBKTNV-1">
          <mxGeometry x="50" y="1058.57" width="90" height="30" as="geometry" />
        </mxCell>
        <mxCell id="cEonZbX1jbNBjB6hPj-9-34" value="" style="endArrow=classic;html=1;rounded=0;exitX=0;exitY=0.5;exitDx=0;exitDy=0;entryX=1;entryY=0.5;entryDx=0;entryDy=0;" edge="1" parent="WIyWlLk6GJQsqaUBKTNV-1" source="cEonZbX1jbNBjB6hPj-9-30" target="cEonZbX1jbNBjB6hPj-9-33">
          <mxGeometry width="50" height="50" relative="1" as="geometry">
            <mxPoint x="190" y="1060" as="sourcePoint" />
            <mxPoint x="240" y="1010" as="targetPoint" />
          </mxGeometry>
        </mxCell>
        <mxCell id="cEonZbX1jbNBjB6hPj-9-35" value="" style="endArrow=classic;html=1;rounded=0;exitX=0.5;exitY=0;exitDx=0;exitDy=0;entryX=0;entryY=0.5;entryDx=0;entryDy=0;" edge="1" parent="WIyWlLk6GJQsqaUBKTNV-1" source="cEonZbX1jbNBjB6hPj-9-32" target="cEonZbX1jbNBjB6hPj-9-21">
          <mxGeometry width="50" height="50" relative="1" as="geometry">
            <mxPoint x="130" y="990" as="sourcePoint" />
            <mxPoint x="180" y="940" as="targetPoint" />
          </mxGeometry>
        </mxCell>
        <mxCell id="cEonZbX1jbNBjB6hPj-9-36" value="" style="shape=display;whiteSpace=wrap;html=1;" vertex="1" parent="WIyWlLk6GJQsqaUBKTNV-1">
          <mxGeometry x="160" y="1176.86" width="130" height="80" as="geometry" />
        </mxCell>
        <mxCell id="cEonZbX1jbNBjB6hPj-9-37" value="display cutscene" style="text;html=1;strokeColor=none;fillColor=none;align=center;verticalAlign=middle;whiteSpace=wrap;rounded=0;" vertex="1" parent="WIyWlLk6GJQsqaUBKTNV-1">
          <mxGeometry x="200" y="1201.86" width="60" height="30" as="geometry" />
        </mxCell>
        <mxCell id="cEonZbX1jbNBjB6hPj-9-38" value="" style="endArrow=classic;html=1;rounded=0;entryX=0.533;entryY=0.026;entryDx=0;entryDy=0;entryPerimeter=0;" edge="1" parent="WIyWlLk6GJQsqaUBKTNV-1" target="cEonZbX1jbNBjB6hPj-9-36">
          <mxGeometry width="50" height="50" relative="1" as="geometry">
            <mxPoint x="230" y="1130" as="sourcePoint" />
            <mxPoint x="370" y="1100" as="targetPoint" />
          </mxGeometry>
        </mxCell>
        <mxCell id="cEonZbX1jbNBjB6hPj-9-39" value="" style="rhombus;whiteSpace=wrap;html=1;" vertex="1" parent="WIyWlLk6GJQsqaUBKTNV-1">
          <mxGeometry x="290" y="1241.86" width="150" height="143.14" as="geometry" />
        </mxCell>
        <mxCell id="cEonZbX1jbNBjB6hPj-9-40" value="" style="endArrow=classic;html=1;rounded=0;exitX=0.5;exitY=1;exitDx=0;exitDy=0;entryX=0.5;entryY=0;entryDx=0;entryDy=0;" edge="1" parent="WIyWlLk6GJQsqaUBKTNV-1" source="cEonZbX1jbNBjB6hPj-9-27" target="cEonZbX1jbNBjB6hPj-9-39">
          <mxGeometry width="50" height="50" relative="1" as="geometry">
            <mxPoint x="390" y="1150" as="sourcePoint" />
            <mxPoint x="440" y="1100" as="targetPoint" />
          </mxGeometry>
        </mxCell>
        <mxCell id="cEonZbX1jbNBjB6hPj-9-41" value="is the player receives puzzle or side quest" style="text;html=1;strokeColor=none;fillColor=none;align=center;verticalAlign=middle;whiteSpace=wrap;rounded=0;" vertex="1" parent="WIyWlLk6GJQsqaUBKTNV-1">
          <mxGeometry x="330" y="1298.43" width="60" height="30" as="geometry" />
        </mxCell>
        <mxCell id="cEonZbX1jbNBjB6hPj-9-42" value="" style="endArrow=classic;html=1;rounded=0;exitX=0.5;exitY=1;exitDx=0;exitDy=0;" edge="1" parent="WIyWlLk6GJQsqaUBKTNV-1" source="cEonZbX1jbNBjB6hPj-9-32">
          <mxGeometry width="50" height="50" relative="1" as="geometry">
            <mxPoint x="70" y="1220" as="sourcePoint" />
            <mxPoint x="95" y="1200" as="targetPoint" />
          </mxGeometry>
        </mxCell>
        <mxCell id="cEonZbX1jbNBjB6hPj-9-43" value="" style="shape=parallelogram;perimeter=parallelogramPerimeter;whiteSpace=wrap;html=1;fixedSize=1;" vertex="1" parent="WIyWlLk6GJQsqaUBKTNV-1">
          <mxGeometry x="35" y="1201.86" width="120" height="60" as="geometry" />
        </mxCell>
        <mxCell id="cEonZbX1jbNBjB6hPj-9-44" value="keep in the collections or bag" style="text;html=1;strokeColor=none;fillColor=none;align=center;verticalAlign=middle;whiteSpace=wrap;rounded=0;" vertex="1" parent="WIyWlLk6GJQsqaUBKTNV-1">
          <mxGeometry x="55" y="1216.86" width="80" height="30" as="geometry" />
        </mxCell>
        <mxCell id="cEonZbX1jbNBjB6hPj-9-45" value="no" style="text;html=1;strokeColor=none;fillColor=none;align=center;verticalAlign=middle;whiteSpace=wrap;rounded=0;" vertex="1" parent="WIyWlLk6GJQsqaUBKTNV-1">
          <mxGeometry x="420" y="1040" width="60" height="30" as="geometry" />
        </mxCell>
        <mxCell id="cEonZbX1jbNBjB6hPj-9-46" value="no" style="text;html=1;strokeColor=none;fillColor=none;align=center;verticalAlign=middle;whiteSpace=wrap;rounded=0;" vertex="1" parent="WIyWlLk6GJQsqaUBKTNV-1">
          <mxGeometry x="135" y="1047.86" width="60" height="30" as="geometry" />
        </mxCell>
        <mxCell id="cEonZbX1jbNBjB6hPj-9-47" value="no" style="text;html=1;strokeColor=none;fillColor=none;align=center;verticalAlign=middle;whiteSpace=wrap;rounded=0;" vertex="1" parent="WIyWlLk6GJQsqaUBKTNV-1">
          <mxGeometry x="270" y="1047.86" width="60" height="30" as="geometry" />
        </mxCell>
        <mxCell id="cEonZbX1jbNBjB6hPj-9-48" value="no" style="text;html=1;strokeColor=none;fillColor=none;align=center;verticalAlign=middle;whiteSpace=wrap;rounded=0;" vertex="1" parent="WIyWlLk6GJQsqaUBKTNV-1">
          <mxGeometry x="50" y="1000" width="60" height="50" as="geometry" />
        </mxCell>
        <mxCell id="cEonZbX1jbNBjB6hPj-9-49" value="no" style="text;html=1;strokeColor=none;fillColor=none;align=center;verticalAlign=middle;whiteSpace=wrap;rounded=0;" vertex="1" parent="WIyWlLk6GJQsqaUBKTNV-1">
          <mxGeometry x="560" y="1139" width="60" height="30" as="geometry" />
        </mxCell>
        <mxCell id="cEonZbX1jbNBjB6hPj-9-50" value="no" style="text;html=1;strokeColor=none;fillColor=none;align=center;verticalAlign=middle;whiteSpace=wrap;rounded=0;" vertex="1" parent="WIyWlLk6GJQsqaUBKTNV-1">
          <mxGeometry x="230" y="1286.8600000000001" width="60" height="30" as="geometry" />
        </mxCell>
        <mxCell id="cEonZbX1jbNBjB6hPj-9-51" value="" style="endArrow=classic;html=1;rounded=0;exitX=1;exitY=1;exitDx=0;exitDy=0;" edge="1" parent="WIyWlLk6GJQsqaUBKTNV-1" source="cEonZbX1jbNBjB6hPj-9-50">
          <mxGeometry width="50" height="50" relative="1" as="geometry">
            <mxPoint x="230" y="1220" as="sourcePoint" />
            <mxPoint x="490" y="970" as="targetPoint" />
            <Array as="points">
              <mxPoint x="20" y="1310" />
              <mxPoint x="20" y="1020" />
            </Array>
          </mxGeometry>
        </mxCell>
        <mxCell id="cEonZbX1jbNBjB6hPj-9-52" value="" style="endArrow=classic;html=1;rounded=0;exitX=0.5;exitY=1;exitDx=0;exitDy=0;" edge="1" parent="WIyWlLk6GJQsqaUBKTNV-1" source="cEonZbX1jbNBjB6hPj-9-39">
          <mxGeometry width="50" height="50" relative="1" as="geometry">
            <mxPoint x="430" y="1470" as="sourcePoint" />
            <mxPoint x="365" y="1440" as="targetPoint" />
          </mxGeometry>
        </mxCell>
        <mxCell id="cEonZbX1jbNBjB6hPj-9-53" value="" style="shape=parallelogram;perimeter=parallelogramPerimeter;whiteSpace=wrap;html=1;fixedSize=1;" vertex="1" parent="WIyWlLk6GJQsqaUBKTNV-1">
          <mxGeometry x="305" y="1440" width="120" height="60" as="geometry" />
        </mxCell>
        <mxCell id="cEonZbX1jbNBjB6hPj-9-54" value="player take action" style="text;html=1;strokeColor=none;fillColor=none;align=center;verticalAlign=middle;whiteSpace=wrap;rounded=0;" vertex="1" parent="WIyWlLk6GJQsqaUBKTNV-1">
          <mxGeometry x="315" y="1455" width="100" height="30" as="geometry" />
        </mxCell>
        <mxCell id="cEonZbX1jbNBjB6hPj-9-55" value="" style="rhombus;whiteSpace=wrap;html=1;" vertex="1" parent="WIyWlLk6GJQsqaUBKTNV-1">
          <mxGeometry x="325" y="1530" width="80" height="80" as="geometry" />
        </mxCell>
        <mxCell id="cEonZbX1jbNBjB6hPj-9-56" value="is successful?" style="text;html=1;strokeColor=none;fillColor=none;align=center;verticalAlign=middle;whiteSpace=wrap;rounded=0;" vertex="1" parent="WIyWlLk6GJQsqaUBKTNV-1">
          <mxGeometry x="335" y="1555" width="60" height="30" as="geometry" />
        </mxCell>
        <mxCell id="cEonZbX1jbNBjB6hPj-9-57" value="" style="endArrow=classic;html=1;rounded=0;exitX=0;exitY=0.5;exitDx=0;exitDy=0;entryX=0;entryY=0.75;entryDx=0;entryDy=0;" edge="1" parent="WIyWlLk6GJQsqaUBKTNV-1" source="cEonZbX1jbNBjB6hPj-9-55" target="cEonZbX1jbNBjB6hPj-9-54">
          <mxGeometry width="50" height="50" relative="1" as="geometry">
            <mxPoint x="430" y="1560" as="sourcePoint" />
            <mxPoint x="480" y="1510" as="targetPoint" />
            <Array as="points">
              <mxPoint x="240" y="1520" />
            </Array>
          </mxGeometry>
        </mxCell>
        <mxCell id="cEonZbX1jbNBjB6hPj-9-58" value="" style="endArrow=classic;html=1;rounded=0;exitX=0.5;exitY=1;exitDx=0;exitDy=0;entryX=0.5;entryY=0;entryDx=0;entryDy=0;" edge="1" parent="WIyWlLk6GJQsqaUBKTNV-1" source="cEonZbX1jbNBjB6hPj-9-53" target="cEonZbX1jbNBjB6hPj-9-55">
          <mxGeometry width="50" height="50" relative="1" as="geometry">
            <mxPoint x="430" y="1560" as="sourcePoint" />
            <mxPoint x="480" y="1510" as="targetPoint" />
          </mxGeometry>
        </mxCell>
        <mxCell id="cEonZbX1jbNBjB6hPj-9-59" value="" style="endArrow=classic;html=1;rounded=0;exitX=0.5;exitY=1;exitDx=0;exitDy=0;" edge="1" parent="WIyWlLk6GJQsqaUBKTNV-1" source="cEonZbX1jbNBjB6hPj-9-55">
          <mxGeometry width="50" height="50" relative="1" as="geometry">
            <mxPoint x="430" y="1560" as="sourcePoint" />
            <mxPoint x="365" y="1660" as="targetPoint" />
          </mxGeometry>
        </mxCell>
        <mxCell id="cEonZbX1jbNBjB6hPj-9-60" value="" style="rounded=0;whiteSpace=wrap;html=1;" vertex="1" parent="WIyWlLk6GJQsqaUBKTNV-1">
          <mxGeometry x="300" y="1660" width="120" height="60" as="geometry" />
        </mxCell>
        <mxCell id="cEonZbX1jbNBjB6hPj-9-61" value="unlock achievement" style="text;html=1;strokeColor=none;fillColor=none;align=center;verticalAlign=middle;whiteSpace=wrap;rounded=0;" vertex="1" parent="WIyWlLk6GJQsqaUBKTNV-1">
          <mxGeometry x="335" y="1675" width="60" height="30" as="geometry" />
        </mxCell>
        <mxCell id="cEonZbX1jbNBjB6hPj-9-63" value="" style="endArrow=none;html=1;rounded=0;exitX=0;exitY=0.5;exitDx=0;exitDy=0;" edge="1" parent="WIyWlLk6GJQsqaUBKTNV-1" source="cEonZbX1jbNBjB6hPj-9-60">
          <mxGeometry width="50" height="50" relative="1" as="geometry">
            <mxPoint x="370" y="1630" as="sourcePoint" />
            <mxPoint x="20" y="1310" as="targetPoint" />
          </mxGeometry>
        </mxCell>
      </root>
    </mxGraphModel>
  </diagram>
</mxfile>
